<svg
            width="29"
            height="24"
            viewBox="0 0 29 24"
            fill="none"
            xmlns="http://www.w3.org/2000/svg"
          >
            <path
              d="M16.5816 10.2251H10.3593C9.86843 10.2251 9.47046 10.5869 9.47046 11.0332V16.6897C9.47046 17.136 9.86843 17.4978 10.3593 17.4978H16.5816C17.0725 17.4978 17.4705 17.136 17.4705 16.6897V11.0332C17.4705 10.5869 17.0725 10.2251 16.5816 10.2251Z"
              stroke="#545454"
              stroke-width="0.5"
              stroke-linecap="round"
              stroke-linejoin="round"
            ></path>
            <path
              d="M11.4704 12.7706C11.7717 12.7706 12.0159 12.5263 12.0159 12.2251C12.0159 11.9239 11.7717 11.6796 11.4704 11.6796C11.1692 11.6796 10.925 11.9239 10.925 12.2251C10.925 12.5263 11.1692 12.7706 11.4704 12.7706Z"
              fill="#000"
            ></path>
            <path
              d="M9.47046 16.4069L12.9705 14.2251L14.5614 15.2168L16.0159 13.6796L17.2886 14.5887"
              stroke="#545454"
              stroke-width="0.5"
              stroke-linecap="round"
              stroke-linejoin="round"
            ></path>
            <path
              d="M20.5252 23.225H6.23807C6.06194 23.2194 5.89457 23.1469 5.76997 23.0223C5.64537 22.8977 5.5729 22.7303 5.56731 22.5542V10.3688L4.09164 11.2184C4.01687 11.2616 3.93204 11.2843 3.8457 11.2843C3.75936 11.2843 3.67453 11.2616 3.59976 11.2184C3.43172 11.1671 3.28846 11.0556 3.1973 10.9054L0.0671049 5.44993C0.0230199 5.36536 0 5.2714 0 5.17603C0 5.08067 0.0230199 4.98671 0.0671049 4.90214C0.0937434 4.81301 0.139573 4.7308 0.201374 4.66127C0.263176 4.59174 0.339451 4.53659 0.424841 4.49969L10.039 0.0838737C10.1342 0.0289272 10.2421 0 10.352 0C10.4619 0 10.5699 0.0289272 10.6651 0.0838737C10.7545 0.132761 10.8302 0.20351 10.8849 0.289523C10.9396 0.375536 10.9717 0.474011 10.9781 0.575762C11.0315 1.18953 11.3144 1.76058 11.7702 2.17501C12.2261 2.58943 12.8215 2.81675 13.4375 2.81162C14.0514 2.80911 14.6426 2.57917 15.0968 2.16622C15.5511 1.75327 15.8361 1.18663 15.897 0.575762C15.8982 0.466798 15.9333 0.360922 15.9974 0.272793C16.0615 0.184665 16.1514 0.118644 16.2547 0.0838737C16.3512 0.0396614 16.456 0.0167746 16.5621 0.0167746C16.6682 0.0167746 16.7731 0.0396614 16.8696 0.0838737L26.4726 4.55558C26.5579 4.59249 26.6342 4.64764 26.696 4.71717C26.7578 4.78669 26.8037 4.86891 26.8303 4.95804C26.8973 5.13448 26.8973 5.32938 26.8303 5.50582L23.7113 10.9613C23.6711 11.0387 23.615 11.1067 23.5466 11.1607C23.4782 11.2148 23.3991 11.2537 23.3145 11.2748C23.23 11.296 23.1418 11.2989 23.0561 11.2834C22.9703 11.2679 22.8888 11.2343 22.8169 11.1849L21.2183 10.3241V22.4536C21.2168 22.6446 21.1455 22.8285 21.0179 22.9706C20.8902 23.1127 20.7149 23.2031 20.5252 23.225V23.225ZM6.90882 21.8723H19.8544V9.2397C19.8591 9.11874 19.8943 9.00094 19.9569 8.89731C20.0194 8.79369 20.1073 8.70763 20.2122 8.6472C20.3114 8.58087 20.4281 8.54547 20.5475 8.54547C20.6669 8.54547 20.7836 8.58087 20.8829 8.6472L22.761 9.76513L25.1758 5.52818L16.9478 1.70487C16.6861 2.44289 16.2021 3.0817 15.5625 3.53349C14.9229 3.98527 14.1591 4.22784 13.376 4.22784C12.593 4.22784 11.8291 3.98527 11.1895 3.53349C10.5499 3.0817 10.066 2.44289 9.80425 1.70487L1.58749 5.53936L4.00221 9.77631L5.88033 8.65838C5.9796 8.59205 6.09631 8.55665 6.21571 8.55665C6.3351 8.55665 6.45181 8.59205 6.55108 8.65838C6.65597 8.71881 6.7438 8.80487 6.80637 8.90849C6.86893 9.01212 6.90418 9.12992 6.90882 9.25088V21.8723Z"
              fill="#000"
            ></path>
            <path
              d="M25.5 13.7253C28.5468 13.3227 29.2362 18.933 22 17.7253"
              stroke="#545454"
              stroke-miterlimit="10"
              stroke-linecap="round"
            ></path>
            <path
              d="M25.3789 11.7004C25.5157 11.6297 25.6777 11.7335 25.6706 11.8873L25.5074 15.4165C25.5003 15.5703 25.3294 15.6587 25.1998 15.5756L22.225 13.6697C22.0954 13.5867 22.1043 13.3944 22.241 13.3237L25.3789 11.7004Z"
              fill="#000"
            ></path>
          </svg>