<svg width="29" height="24" viewBox="0 0 29 24" fill="none" xmlns="http://www.w3.org/2000/svg"><path d="M12.1589 10.225H18.3811C18.8721 10.225 19.27 10.5868 19.27 11.0331V16.6896C19.27 17.1359 18.8721 17.4977 18.3811 17.4977H12.1589C11.668 17.4977 11.27 17.1359 11.27 16.6896V11.0331C11.27 10.5868 11.668 10.225 12.1589 10.225Z" stroke="#000" stroke-width="0.5" stroke-linecap="round" stroke-linejoin="round"></path><path d="M17.27 12.7704C16.9688 12.7704 16.7246 12.5262 16.7246 12.225C16.7246 11.9237 16.9688 11.6795 17.27 11.6795C17.5713 11.6795 17.8155 11.9237 17.8155 12.225C17.8155 12.5262 17.5713 12.7704 17.27 12.7704Z" fill="#000"></path><path d="M19.27 16.4068L15.77 14.225L14.1791 15.2167L12.7246 13.6795L11.4518 14.5886" stroke="#000" stroke-width="0.5" stroke-linecap="round" stroke-linejoin="round"></path><path d="M8.21554 23.225H22.5027C22.6788 23.2194 22.8462 23.1469 22.9708 23.0223C23.0954 22.8977 23.1678 22.7303 23.1734 22.5542V10.3688L24.6491 11.2184C24.7239 11.2616 24.8087 11.2843 24.895 11.2843C24.9814 11.2843 25.0662 11.2616 25.141 11.2184C25.309 11.1671 25.4523 11.0556 25.5434 10.9054L28.6736 5.44993C28.7177 5.36536 28.7407 5.2714 28.7407 5.17603C28.7407 5.08067 28.7177 4.98671 28.6736 4.90214C28.647 4.81301 28.6011 4.7308 28.5393 4.66127C28.4775 4.59174 28.4013 4.53659 28.3159 4.49969L18.7017 0.0838737C18.6065 0.0289272 18.4986 0 18.3887 0C18.2788 0 18.1708 0.0289272 18.0757 0.0838737C17.9862 0.132761 17.9106 0.20351 17.8558 0.289523C17.8011 0.375536 17.769 0.474011 17.7626 0.575762C17.7092 1.18953 17.4264 1.76058 16.9705 2.17501C16.5146 2.58943 15.9193 2.81675 15.3032 2.81162C14.6893 2.80911 14.0982 2.57917 13.6439 2.16622C13.1897 1.75327 12.9046 1.18663 12.8438 0.575762C12.8425 0.466798 12.8074 0.360922 12.7433 0.272793C12.6792 0.184665 12.5893 0.118644 12.486 0.0838737C12.3896 0.0396614 12.2847 0.0167746 12.1786 0.0167746C12.0725 0.0167746 11.9676 0.0396614 11.8712 0.0838737L2.26817 4.55558C2.18278 4.59249 2.1065 4.64764 2.0447 4.71717C1.9829 4.78669 1.93707 4.86891 1.91043 4.95804C1.84341 5.13448 1.84341 5.32938 1.91043 5.50582L5.02945 10.9613C5.06957 11.0387 5.1257 11.1067 5.1941 11.1607C5.2625 11.2148 5.34161 11.2537 5.42619 11.2748C5.51077 11.296 5.59887 11.2989 5.68466 11.2834C5.77045 11.2679 5.85197 11.2343 5.92379 11.1849L7.52243 10.3241V22.4536C7.52391 22.6446 7.5952 22.8285 7.72287 22.9706C7.85054 23.1127 8.02578 23.2031 8.21554 23.225V23.225ZM21.8319 21.8723H8.8863V9.2397C8.88166 9.11874 8.84641 9.00094 8.78384 8.89731C8.72128 8.79369 8.63344 8.70763 8.52856 8.6472C8.42929 8.58087 8.31258 8.54547 8.19319 8.54547C8.07379 8.54547 7.95708 8.58087 7.85781 8.6472L5.97969 9.76513L3.56496 5.52818L11.7929 1.70487C12.0547 2.44289 12.5386 3.0817 13.1782 3.53349C13.8178 3.98527 14.5816 4.22784 15.3647 4.22784C16.1478 4.22784 16.9116 3.98527 17.5512 3.53349C18.1908 3.0817 18.6747 2.44289 18.9365 1.70487L27.1532 5.53936L24.7385 9.77631L22.8604 8.65838C22.7611 8.59205 22.6444 8.55665 22.525 8.55665C22.4056 8.55665 22.2889 8.59205 22.1896 8.65838C22.0848 8.71881 21.9969 8.80487 21.9344 8.90849C21.8718 9.01212 21.8365 9.12992 21.8319 9.25088V21.8723Z" fill="#545454"></path><path d="M3.24072 18.3957C0.193913 18.7983 -0.49545 13.188 6.74072 14.3957" stroke="#000" stroke-miterlimit="10" stroke-linecap="round"></path><path d="M3.36179 20.4203C3.22504 20.4911 3.063 20.3873 3.07011 20.2335L3.23327 16.7043C3.24039 16.5505 3.41132 16.4621 3.54095 16.5451L6.51572 18.451C6.64536 18.5341 6.63647 18.7263 6.49972 18.7971L3.36179 20.4203Z" fill="#000"></path></svg>